# xmcd
# Track frame offsets:
# 150
# 13573
# 28589
# 40938
# 56042
# 68364
# 85143
# 97244
# 110743
# 124756
# 134576
# 149786
# 162484
# 173433
# 186329
#
# Disc length: 2657 seconds
# Revision: 0
# Processed by: cddbd v1.5.1PL0 Copyright (c) Steve Scherf et al.
# Submitted via: VisiTrax 2.9.10.228 - For more info visit www.synapsa.com
#
DISCID=d80a5f0f
DTITLE=Vairous - Classic Country Hits - Disc 1
DYEAR=1980
DGENRE=Country
TTITLE0=Hank Williams Jr - Hey Good Lookin'
TTITLE1=Charlie Daniels Band - In America
TTITLE2=Janie Fricke and Moe Bandy - Its A Cheating Situation
TTITLE3=Glen Campbell - Rhinestone Cowboy
TTITLE4=Mel Tellis - Sawmill
TTITLE5=Mark Gray and Tammy Wynette - Sometimes When We Touch
TTITLE6=Crystal Gayle - Don't It Make My Brown Eyes Blue
TTITLE7=Waylon Jenning And Willie Nelson - Good Hearted Women
TTITLE8=Johnny Duncan - It Couldn't Have Been Any Better
TTITLE9=Charlie Daniels Band - Let Freedom Ring
TTITLE10=Willie Nelson - Living In The Promise Land
TTITLE11=Jimmy Wakely - One Has My Nam (One Has My Heart)
TTITLE12=Dave Dudley - Six Days On The Road
TTITLE13=George Jones And Lacy J Dalton - Size Seven Round (Made Of Gold)
TTITLE14=Crystal Gayle - Talking In Your Sleep
EXTD=
EXTT0=
EXTT1=
EXTT2=
EXTT3=
EXTT4=
EXTT5=
EXTT6=
EXTT7=
EXTT8=
EXTT9=
EXTT10=
EXTT11=
EXTT12=
EXTT13=
EXTT14=
PLAYORDER=
